<svg width="50" height="50" viewBox="0 0 50 50" fill="none" xmlns="http://www.w3.org/2000/svg">
<circle opacity="0.1" cx="25" cy="25" r="25" fill="#212353"/>
<path d="M25.0018 20.7678C22.7316 20.7678 20.9005 22.5383 20.9005 24.7333C20.9005 26.9282 22.7316 28.6987 25.0018 28.6987C27.2719 28.6987 29.1031 26.9282 29.1031 24.7333C29.1031 22.5383 27.2719 20.7678 25.0018 20.7678ZM25.0018 27.3113C23.5347 27.3113 22.3354 26.1552 22.3354 24.7333C22.3354 23.3114 23.5312 22.1552 25.0018 22.1552C26.4724 22.1552 27.6682 23.3114 27.6682 24.7333C27.6682 26.1552 26.4688 27.3113 25.0018 27.3113ZM30.2274 20.6056C30.2274 21.1199 29.7991 21.5306 29.2708 21.5306C28.739 21.5306 28.3142 21.1164 28.3142 20.6056C28.3142 20.0949 28.7426 19.6807 29.2708 19.6807C29.7991 19.6807 30.2274 20.0949 30.2274 20.6056ZM32.9438 21.5444C32.8831 20.3054 32.5904 19.2079 31.6516 18.3037C30.7165 17.3995 29.5814 17.1165 28.2999 17.0544C26.9793 16.9819 23.0207 16.9819 21.7001 17.0544C20.4222 17.113 19.2871 17.396 18.3484 18.3002C17.4096 19.2045 17.1205 20.3019 17.0562 21.5409C16.9813 22.8179 16.9813 26.6452 17.0562 27.9222C17.1169 29.1612 17.4096 30.2586 18.3484 31.1629C19.2871 32.0671 20.4186 32.3501 21.7001 32.4122C23.0207 32.4847 26.9793 32.4847 28.2999 32.4122C29.5814 32.3535 30.7165 32.0705 31.6516 31.1629C32.5868 30.2586 32.8795 29.1612 32.9438 27.9222C33.0187 26.6452 33.0187 22.8213 32.9438 21.5444ZM31.2376 29.2923C30.9592 29.9687 30.4202 30.4899 29.717 30.7625C28.664 31.1663 26.1654 31.0731 25.0018 31.0731C23.8381 31.0731 21.336 31.1629 20.2866 30.7625C19.5869 30.4933 19.048 29.9722 18.766 29.2923C18.3484 28.2742 18.4447 25.8584 18.4447 24.7333C18.4447 23.6082 18.3519 21.1889 18.766 20.1742C19.0444 19.4978 19.5834 18.9767 20.2866 18.704C21.3395 18.3002 23.8381 18.3934 25.0018 18.3934C26.1654 18.3934 28.6676 18.3037 29.717 18.704C30.4166 18.9732 30.9556 19.4944 31.2376 20.1742C31.6552 21.1923 31.5588 23.6082 31.5588 24.7333C31.5588 25.8584 31.6552 28.2777 31.2376 29.2923Z" fill="white"/>
</svg>
