<svg width="50" height="50" viewBox="0 0 50 50" fill="none" xmlns="http://www.w3.org/2000/svg">
<circle opacity="0.1" cx="25" cy="25" r="25" fill="#212353"/>
<path fill-rule="evenodd" clip-rule="evenodd" d="M24.9096 22.5038L24.8699 21.8739C24.7511 20.2414 25.7939 18.7502 27.4438 18.1718C28.051 17.9661 29.0805 17.9404 29.7537 18.1204C30.0177 18.1975 30.5193 18.4545 30.8756 18.686L31.5224 19.1102L32.2352 18.8917C32.6312 18.7759 33.1592 18.5831 33.3967 18.4545C33.6211 18.3389 33.8191 18.2746 33.8191 18.3132C33.8191 18.5317 33.3307 19.2773 32.9216 19.6886C32.3672 20.2671 32.5256 20.3185 33.6475 19.9328C34.3207 19.7143 34.3338 19.7143 34.2019 19.9585C34.1226 20.0871 33.7135 20.537 33.2779 20.9483C32.5387 21.6554 32.4992 21.7325 32.4992 22.3238C32.4992 23.2365 32.0504 25.139 31.6016 26.1802C30.77 28.1341 28.9881 30.1523 27.2062 31.1678C24.6984 32.5948 21.3589 32.9546 18.5475 32.1191C17.6103 31.8363 16 31.1164 16 30.9879C16 30.9493 16.4883 30.8979 17.0824 30.8851C18.3231 30.8594 19.5638 30.5251 20.6197 29.9338L21.3326 29.5225L20.5142 29.2525C19.3526 28.8668 18.3099 27.9799 18.0459 27.1443C17.9667 26.8744 17.9931 26.8615 18.7323 26.8615L19.4978 26.8487L18.8511 26.553C18.0855 26.1802 17.3859 25.5503 17.0427 24.9076C16.7919 24.4448 16.4752 23.275 16.5676 23.1851C16.5939 23.1466 16.8712 23.2236 17.188 23.3265C18.0987 23.6478 18.2175 23.5707 17.6895 23.0308C16.6995 22.0539 16.396 20.6013 16.8712 19.2258L17.0956 18.6088L17.9667 19.4444C19.7486 21.1283 21.8473 22.131 24.2496 22.4267L24.9096 22.5038Z" fill="white"/>
</svg>
